<svg width="48" height="48" viewBox="0 0 48 48" fill="none" xmlns="http://www.w3.org/2000/svg">
<rect width="48" height="48" rx="24" fill="#12222D"/>
<path d="M9 19.4077V18.6776C9 18.3019 9.19269 18.0015 9.578 17.7764L17.0351 13.3644C17.213 13.2373 17.4252 13.1666 17.6438 13.1616C17.7652 13.1626 17.8851 13.1881 17.9964 13.2364C18.1077 13.2848 18.2081 13.355 18.2917 13.4429C18.3851 13.5315 18.459 13.6384 18.5087 13.7571C18.5585 13.8758 18.583 14.0035 18.5807 14.1322C18.5807 14.4854 18.4418 14.7445 18.164 14.9095L11.1863 19.0364L18.165 23.1387C18.44 23.3188 18.5778 23.5852 18.5778 23.9401C18.58 24.0688 18.5553 24.1965 18.5056 24.3151C18.4558 24.4337 18.3821 24.5408 18.2888 24.6294C18.2052 24.7174 18.1047 24.7875 17.9935 24.8359C17.8822 24.8843 17.7623 24.9097 17.641 24.9107C17.4531 24.9107 17.2502 24.8431 17.0321 24.7079L9.57368 20.309C9.19152 20.0989 9.00029 19.7985 9 19.4077Z" fill="#F4B41A"/>
<path d="M28.5919 13.2172L20.9051 26.2489C20.7853 26.4461 20.5941 26.5443 20.3314 26.5437C20.0783 26.5417 19.8336 26.452 19.6392 26.2898C19.5378 26.2149 19.4558 26.1169 19.4 26.0039C19.3442 25.8909 19.3162 25.7661 19.3185 25.6401C19.3185 25.4076 19.3936 25.1599 19.5439 24.8969L27.235 11.8801C27.3634 11.6755 27.5616 11.5729 27.8294 11.5723C28.0766 11.5744 28.316 11.6592 28.5095 11.8131C28.6104 11.8853 28.6923 11.9809 28.7479 12.0917C28.8035 12.2026 28.8313 12.3254 28.8288 12.4493C28.8288 12.6973 28.7499 12.9527 28.5919 13.2157" fill="#F4B41A"/>
<path d="M38.9992 18.6738V19.4078C38.9992 19.7931 38.816 20.0948 38.4496 20.3128L30.9887 24.708C30.7704 24.8434 30.5637 24.9111 30.3689 24.9107C30.1257 24.9097 29.8928 24.8126 29.721 24.6405C29.6266 24.5532 29.552 24.4466 29.5022 24.3281C29.4523 24.2095 29.4284 24.0818 29.432 23.9532C29.432 23.5929 29.5736 23.3271 29.8583 23.1628L36.824 19.0364L29.8597 14.9355C29.5751 14.7555 29.4335 14.4833 29.4335 14.1225C29.4299 13.9935 29.4538 13.8652 29.5036 13.7461C29.5535 13.627 29.6281 13.5199 29.7224 13.4318C29.8942 13.2598 30.1271 13.1626 30.3702 13.1616C30.5581 13.1616 30.7647 13.2292 30.9902 13.3644L38.4501 17.7706C38.8162 17.9888 39.0002 18.2908 39.0002 18.6738" fill="#F4B41A"/>
<path d="M21.3359 11.1659C21.181 11.1669 21.0308 11.1124 20.9128 11.0122C20.7947 10.912 20.7165 10.7727 20.6924 10.6197C20.4429 8.90592 19.0422 7.54521 17.3689 7.29618C17.2158 7.27237 17.0762 7.19434 16.9756 7.07638C16.875 6.95835 16.8201 6.80822 16.8208 6.65319C16.8209 6.55978 16.841 6.46739 16.8798 6.3824C16.9185 6.29734 16.9751 6.22165 17.0457 6.16033C17.1161 6.099 17.199 6.05358 17.2886 6.02698C17.3782 6.00039 17.4724 5.99335 17.565 6.00632C18.6783 6.16839 19.7096 6.6855 20.5055 7.48066C21.3015 8.27582 21.8196 9.30661 21.9827 10.4197C21.9958 10.5124 21.989 10.6067 21.9624 10.6964C21.9359 10.7861 21.8905 10.869 21.8292 10.9396C21.7678 11.0102 21.692 11.0668 21.6069 11.1056C21.5218 11.1444 21.4294 11.1644 21.3359 11.1644" fill="#F4B41A"/>
<path d="M12.4257 34.1028C12.3006 34.1032 12.1768 34.0779 12.0619 34.0285C11.9471 33.979 11.8436 33.9063 11.7581 33.8151C11.6726 33.7238 11.6068 33.6159 11.5649 33.498C11.523 33.3802 11.5057 33.255 11.5144 33.1303C11.7807 29.5978 13.4858 26.8123 15.7578 26.0812C15.8947 26.0372 16.04 26.0261 16.182 26.0488C16.324 26.0715 16.4586 26.1274 16.575 26.2118C16.6914 26.2962 16.7863 26.4069 16.8519 26.5349C16.9175 26.6628 16.9521 26.8044 16.9527 26.9482C16.9543 27.1394 16.8951 27.3261 16.7836 27.4815C16.672 27.6368 16.5141 27.7526 16.3324 27.8123C14.795 28.2939 13.5546 30.5308 13.337 33.2492C13.3203 33.4798 13.2172 33.6956 13.0484 33.8535C12.8796 34.0114 12.6573 34.0997 12.4261 34.1008" fill="#F4B41A"/>
<path d="M26.6469 11.166C26.8018 11.1672 26.9519 11.1126 27.07 11.0123C27.188 10.9121 27.2661 10.7728 27.29 10.6198C27.5395 8.906 28.9406 7.54537 30.6134 7.29634C30.7666 7.27238 30.906 7.19428 31.0064 7.07632C31.107 6.95836 31.1618 6.80824 31.1611 6.65328C31.1611 6.55979 31.141 6.46733 31.1023 6.38227C31.0634 6.29713 31.0069 6.22138 30.9362 6.16005C30.8657 6.09873 30.7828 6.0533 30.693 6.02678C30.6033 6.00026 30.509 5.99337 30.4164 6.00641C29.3034 6.16884 28.2724 6.68603 27.4768 7.48112C26.6811 8.27628 26.1632 9.30692 26.0001 10.4199C25.987 10.5124 25.9939 10.6068 26.0204 10.6965C26.047 10.7862 26.0924 10.8691 26.1537 10.9397C26.215 11.0103 26.2908 11.0669 26.3759 11.1057C26.461 11.1445 26.5534 11.1645 26.6469 11.1645" fill="#F4B41A"/>
<path d="M35.5906 34.1028C35.7157 34.1032 35.8395 34.0779 35.9543 34.0283C36.0691 33.9788 36.1725 33.9061 36.258 33.8149C36.3435 33.7236 36.4092 33.6158 36.4512 33.498C36.4932 33.3802 36.5105 33.255 36.5019 33.1303C36.2356 29.5978 34.5305 26.8123 32.2585 26.0812C32.1216 26.0372 31.9763 26.0261 31.8343 26.0488C31.6923 26.0715 31.5576 26.1274 31.4412 26.2118C31.3248 26.2962 31.23 26.4069 31.1643 26.5349C31.0987 26.6628 31.0642 26.8044 31.0635 26.9482C31.0619 27.1394 31.1212 27.3261 31.2327 27.4815C31.3442 27.6368 31.5022 27.7526 31.6839 27.8123C33.2214 28.2939 34.4616 30.5308 34.6794 33.2492C34.6954 33.48 34.7983 33.6962 34.9673 33.8542C35.1362 34.0122 35.3588 34.1003 35.5901 34.1008" fill="#F4B41A"/>
<path d="M13.0621 37.6866H11.5396V37.6817C11.5215 37.5883 11.514 37.4931 11.5174 37.398C11.5174 37.1355 11.6923 36.8735 12.1369 36.8735H15.5605C15.5755 36.9772 15.5829 37.0818 15.5826 37.1866C15.5826 37.4414 15.4295 37.689 14.9854 37.689H14.0673V41.7532H13.0621V37.6866Z" fill="white"/>
<path d="M18.6937 40.9789C19.16 40.9789 19.2982 41.2337 19.2982 41.4958C19.2982 41.6051 19.291 41.6633 19.2837 41.751H16.1294V36.8713H19.1672C19.1856 36.9598 19.193 37.0503 19.1894 37.1406C19.1894 37.483 19.0449 37.6507 18.57 37.6507H17.1351V38.8524H18.6793V39.6317H17.1351V40.9803L18.6937 40.9789Z" fill="white"/>
<path d="M21.1402 41.1016C21.5405 41.1016 21.9557 40.9268 21.9557 40.4461C21.9557 39.9365 21.4967 39.7906 21.0016 39.6157C20.3826 39.4048 19.6755 39.1716 19.6755 38.203C19.6755 37.2633 20.477 36.7754 21.4095 36.7754C22.0506 36.7754 22.5313 36.9941 22.6772 37.1034C22.8155 37.1833 22.881 37.2927 22.881 37.4309C22.881 37.5475 22.7717 37.7681 22.5896 37.9608C22.3487 37.7642 21.934 37.5527 21.5044 37.5527C21.1547 37.5527 20.7246 37.6693 20.7246 38.1062C20.7246 38.5214 21.147 38.6745 21.6204 38.8494C22.2399 39.082 22.9759 39.3311 22.9759 40.2838C22.9759 41.3107 22.2255 41.8733 21.1455 41.8733C20.4539 41.8733 20.0237 41.6916 19.8272 41.5752C19.7107 41.4947 19.623 41.3931 19.623 41.2543C19.623 41.0872 19.7834 40.8319 19.9366 40.6282C20.2063 40.8391 20.5921 41.1016 21.1408 41.1016" fill="white"/>
<path d="M26.117 41.7868H25.0092L23.3716 36.9148C23.5465 36.8629 23.7282 36.8382 23.9106 36.8416C24.2819 36.8416 24.4862 37.0309 24.5955 37.3806L25.5935 40.6944L26.6132 37.3589C26.7225 37.0164 26.9118 36.8416 27.2836 36.8416C27.4504 36.8442 27.6161 36.8688 27.7764 36.9148L26.117 41.7868Z" fill="white"/>
<path d="M31.1146 41.7512L30.6994 40.5567H29.0165L28.6163 41.7512H27.6255L29.318 36.9442C29.5028 36.875 29.6987 36.8404 29.896 36.8421C30.1075 36.8421 30.4499 36.8932 30.5809 37.2939L32.1473 41.7512H31.1146ZM29.8691 37.7535L29.2063 39.8289H30.5101L29.8691 37.7535Z" fill="white"/>
<path d="M35.579 40.2349V36.8787L35.6955 36.8642C35.763 36.8533 35.8311 36.8459 35.8993 36.842C36.169 36.842 36.5332 36.9225 36.5332 37.4104V41.7511H35.6893L33.6128 38.5491V41.7535H32.6587V36.8888C32.8051 36.8597 32.954 36.845 33.1033 36.845C33.4163 36.845 33.5618 36.947 33.7005 37.1729L35.579 40.2349Z" fill="white"/>
</svg>
