<svg width="196" height="196" viewBox="0 0 196 196" fill="none" xmlns="http://www.w3.org/2000/svg">
<g clip-path="url(#clip0_30_150)">
<path d="M196 98C196 43.8761 152.124 0 98 0C43.8761 0 0 43.8761 0 98C0 152.124 43.8761 196 98 196C152.124 196 196 152.124 196 98Z" fill="#12222D"/>
<path d="M36.75 79.2481V76.2668C36.75 74.7327 37.5368 73.5061 39.1102 72.5869L69.56 54.5713C70.2864 54.0523 71.1529 53.7636 72.0455 53.7432C72.5412 53.7472 73.0308 53.8514 73.4853 54.0486C73.9398 54.2462 74.3497 54.5329 74.6911 54.8918C75.0725 55.2536 75.3742 55.6901 75.5772 56.1748C75.7805 56.6595 75.8806 57.1809 75.8712 57.7064C75.8712 59.1487 75.304 60.2067 74.1697 60.8804L45.6774 77.7319L74.1738 94.483C75.2967 95.2184 75.8594 96.3062 75.8594 97.7554C75.8683 98.2809 75.7675 98.8023 75.5645 99.2866C75.3612 99.7709 75.0602 100.208 74.6793 100.57C74.3379 100.929 73.9275 101.216 73.4735 101.413C73.019 101.611 72.5294 101.715 72.0341 101.719C71.2668 101.719 70.4383 101.443 69.5477 100.891L39.0925 82.9284C37.532 82.0705 36.7512 80.8438 36.75 79.2481Z" fill="#F4B41A"/>
<path d="M116.75 53.9702L85.3625 107.183C84.8733 107.988 84.0925 108.389 83.0198 108.387C81.9864 108.379 80.9872 108.012 80.1934 107.35C79.7793 107.044 79.4445 106.644 79.2166 106.183C78.9888 105.721 78.8744 105.212 78.8838 104.697C78.8838 103.748 79.1905 102.736 79.8042 101.662L111.21 48.5104C111.734 47.6749 112.543 47.256 113.637 47.2535C114.646 47.2621 115.624 47.6084 116.414 48.2368C116.826 48.5316 117.16 48.922 117.387 49.3744C117.614 49.8273 117.728 50.3287 117.718 50.8346C117.718 51.8473 117.395 52.8902 116.75 53.9641" fill="#F4B41A"/>
<path d="M159.247 76.2513V79.2485C159.247 80.8218 158.499 82.0537 157.003 82.9439L126.537 100.891C125.646 101.444 124.802 101.72 124.006 101.719C123.013 101.715 122.062 101.318 121.361 100.615C120.975 100.259 120.671 99.8236 120.467 99.3397C120.264 98.8554 120.166 98.334 120.181 97.8089C120.181 96.3376 120.759 95.2523 121.921 94.5814L150.365 77.7319L121.927 60.9866C120.765 60.2516 120.187 59.1401 120.187 57.6668C120.172 57.1401 120.27 56.6162 120.473 56.1299C120.677 55.6435 120.981 55.2062 121.366 54.8465C122.068 54.1441 123.019 53.7472 124.012 53.7432C124.779 53.7432 125.623 54.0192 126.543 54.5713L157.005 72.5632C158.499 73.4542 159.247 74.6874 159.247 76.2513Z" fill="#F4B41A"/>
<path d="M87.1215 45.5941C86.489 45.5982 85.8757 45.3756 85.3938 44.9665C84.9116 44.5573 84.5923 43.9885 84.4939 43.3638C83.4751 36.3658 77.7556 30.8096 70.9229 29.7927C70.2978 29.6955 69.7277 29.3769 69.3169 28.8952C68.9062 28.4133 68.682 27.8002 68.6848 27.1672C68.6852 26.7858 68.7673 26.4085 68.9258 26.0615C69.0838 25.7141 69.3149 25.4051 69.6032 25.1547C69.8906 24.9043 70.2292 24.7188 70.595 24.6102C70.9609 24.5016 71.3455 24.4728 71.7237 24.5258C76.2696 25.1876 80.4808 27.2991 83.7307 30.546C86.981 33.7929 89.0966 38.002 89.7626 42.5471C89.8161 42.9256 89.7883 43.3107 89.6797 43.677C89.5715 44.0432 89.3861 44.3818 89.1358 44.67C88.8851 44.9583 88.5756 45.1894 88.2281 45.3479C87.8806 45.5063 87.5033 45.588 87.1215 45.588" fill="#F4B41A"/>
<path d="M50.7384 139.253C50.2276 139.255 49.722 139.151 49.2529 138.95C48.7841 138.748 48.3615 138.451 48.0124 138.078C47.6632 137.706 47.3945 137.265 47.2235 136.783C47.0524 136.302 46.9817 135.791 47.0172 135.282C48.1046 120.858 55.0671 109.484 64.3445 106.498C64.9035 106.319 65.4968 106.273 66.0766 106.366C66.6564 106.459 67.2061 106.687 67.6814 107.032C68.1567 107.376 68.5442 107.828 68.812 108.351C69.0799 108.873 69.2212 109.451 69.2236 110.038C69.2302 110.819 68.9884 111.582 68.5331 112.216C68.0774 112.85 67.4327 113.323 66.6907 113.567C60.413 115.533 55.3481 124.667 54.4595 135.768C54.3913 136.709 53.9703 137.59 53.2811 138.235C52.5918 138.88 51.6841 139.24 50.74 139.245" fill="#F4B41A"/>
<path d="M108.808 45.5945C109.441 45.5994 110.053 45.3764 110.536 44.9669C111.018 44.5577 111.336 43.9889 111.434 43.3642C112.453 36.3662 118.174 30.8103 125.005 29.7934C125.63 29.6955 126.199 29.3766 126.609 28.895C127.02 28.4133 127.244 27.8003 127.241 27.1676C127.241 26.7858 127.159 26.4083 127.001 26.0609C126.842 25.7133 126.611 25.404 126.323 25.1535C126.035 24.9031 125.696 24.7176 125.33 24.6093C124.963 24.5011 124.578 24.4729 124.2 24.5262C119.655 25.1894 115.446 27.3013 112.197 30.5479C108.948 33.7948 106.833 38.0033 106.167 42.5479C106.113 42.9256 106.142 43.3111 106.25 43.6774C106.358 44.0436 106.544 44.3822 106.794 44.6704C107.044 44.9587 107.354 45.1898 107.701 45.3483C108.049 45.5067 108.426 45.5884 108.808 45.5884" fill="#F4B41A"/>
<path d="M145.328 139.253C145.839 139.255 146.345 139.151 146.813 138.949C147.282 138.747 147.704 138.45 148.054 138.077C148.403 137.705 148.671 137.265 148.842 136.783C149.014 136.302 149.085 135.791 149.049 135.282C147.962 120.858 141 109.484 131.722 106.498C131.163 106.319 130.57 106.273 129.99 106.366C129.41 106.459 128.86 106.687 128.385 107.032C127.91 107.376 127.523 107.828 127.254 108.351C126.986 108.873 126.846 109.451 126.843 110.038C126.836 110.819 127.078 111.582 127.534 112.216C127.989 112.85 128.634 113.323 129.376 113.567C135.654 115.533 140.718 124.667 141.608 135.768C141.673 136.71 142.093 137.593 142.783 138.238C143.473 138.883 144.382 139.243 145.326 139.245" fill="#F4B41A"/>
<path d="M53.3369 153.887H47.12V153.867C47.0461 153.486 47.0155 153.097 47.0294 152.708C47.0294 151.637 47.7436 150.567 49.559 150.567H63.5387C63.6 150.99 63.6302 151.417 63.6289 151.845C63.6289 152.886 63.0038 153.897 61.1904 153.897H57.4415V170.492H53.3369V153.887Z" fill="white"/>
<path d="M76.3327 167.331C78.2368 167.331 78.8011 168.371 78.8011 169.441C78.8011 169.888 78.7717 170.125 78.7419 170.483H65.8618V150.558H78.2662C78.3413 150.919 78.3715 151.289 78.3568 151.657C78.3568 153.056 77.7668 153.74 75.8276 153.74H69.9684V158.647H76.2739V161.829H69.9684V167.336L76.3327 167.331Z" fill="white"/>
<path d="M86.3224 167.832C87.957 167.832 89.6524 167.118 89.6524 165.155C89.6524 163.074 87.7781 162.478 85.7565 161.764C83.2289 160.903 80.3416 159.951 80.3416 155.996C80.3416 152.159 83.6144 150.166 87.4221 150.166C90.0399 150.166 92.0028 151.059 92.5985 151.506C93.1632 151.832 93.4307 152.279 93.4307 152.843C93.4307 153.319 92.9844 154.22 92.2408 155.007C91.2571 154.204 89.5638 153.34 87.8096 153.34C86.3816 153.34 84.6254 153.816 84.6254 155.6C84.6254 157.296 86.3502 157.921 88.2832 158.635C90.8129 159.585 93.8182 160.602 93.8182 164.492C93.8182 168.685 90.7541 170.983 86.3441 170.983C83.52 170.983 81.7634 170.241 80.961 169.765C80.4853 169.437 80.1272 169.022 80.1272 168.455C80.1272 167.773 80.7822 166.73 81.4077 165.899C82.509 166.76 84.0819 167.832 86.3224 167.832Z" fill="white"/>
<path d="M106.644 170.629H102.121L95.4341 150.735C96.1483 150.524 96.8902 150.423 97.635 150.437C99.1511 150.437 99.9854 151.21 100.432 152.637L104.507 166.169L108.671 152.549C109.117 151.15 109.89 150.437 111.408 150.437C112.089 150.447 112.766 150.548 113.42 150.735L106.644 170.629Z" fill="white"/>
<path d="M127.051 170.484L125.356 165.607H118.484L116.85 170.484H112.804L119.715 150.856C120.47 150.573 121.27 150.432 122.075 150.439C122.939 150.439 124.337 150.647 124.872 152.283L131.268 170.484H127.051ZM121.966 154.16L119.259 162.635H124.583L121.966 154.16Z" fill="white"/>
<path d="M145.281 164.292V150.588L145.757 150.529C146.032 150.484 146.31 150.454 146.589 150.438C147.69 150.438 149.177 150.767 149.177 152.759V170.484H145.731L137.252 157.409V170.493H133.356V150.629C133.954 150.51 134.562 150.45 135.172 150.45C136.45 150.45 137.044 150.867 137.61 151.789L145.281 164.292Z" fill="white"/>
</g>
<defs>
<clipPath id="clip0_30_150">
<rect width="196" height="196" fill="white"/>
</clipPath>
</defs>
</svg>
